<?xml version="1.0" standalone="no"?>
<!DOCTYPE svg PUBLIC "-//W3C//DTD SVG 20010904//EN"
 "http://www.w3.org/TR/2001/REC-SVG-20010904/DTD/svg10.dtd">
<svg version="1.0" xmlns="http://www.w3.org/2000/svg"
 width="700.000000pt" height="700.000000pt" viewBox="0 0 700.000000 700.000000"
 preserveAspectRatio="xMidYMid meet">
<metadata>
Created by potrace 1.11, written by Peter Selinger 2001-2013
</metadata>
<g transform="translate(0.000000,700.000000) scale(0.100000,-0.100000)"
fill="#000000" stroke="none">
<path d="M3288 6625 c-2 -1 -37 -6 -78 -9 -147 -14 -176 -18 -275 -37 -55 -11
-111 -22 -125 -25 -83 -16 -395 -113 -465 -144 -22 -10 -74 -32 -115 -49 -88
-37 -273 -134 -357 -187 -74 -47 -236 -156 -243 -164 -3 -3 -45 -37 -95 -75
-189 -146 -461 -441 -614 -665 -241 -353 -414 -765 -486 -1160 -3 -14 -7 -36
-10 -50 -6 -32 -15 -87 -21 -125 -2 -16 -6 -41 -8 -53 -19 -89 -25 -433 -12
-632 6 -79 33 -289 50 -377 10 -51 67 -255 96 -342 90 -273 201 -501 369 -756
77 -118 106 -158 204 -280 84 -104 351 -359 512 -488 134 -108 433 -282 640
-372 187 -81 546 -190 695 -210 25 -3 56 -8 70 -10 14 -3 39 -7 55 -9 17 -3
44 -7 60 -10 50 -8 262 -17 400 -17 120 0 190 4 305 17 25 3 65 7 90 10 84 8
365 71 485 108 247 77 518 201 735 337 374 234 689 539 943 913 37 54 67 100
67 102 0 2 18 33 40 69 191 312 352 781 394 1150 3 22 8 63 11 91 12 98 14
141 15 314 0 267 -3 308 -40 530 -23 131 -27 155 -34 178 -3 9 -8 33 -11 52
-3 19 -37 127 -74 240 -113 337 -270 639 -465 894 -57 74 -85 106 -211 245
-379 418 -881 725 -1451 886 -67 19 -134 37 -150 39 -16 3 -40 8 -54 11 -70
15 -121 24 -175 30 -33 4 -63 9 -66 11 -18 10 -590 29 -601 19z m445 -269 c37
-15 69 -31 71 -35 4 -6 -74 -210 -116 -303 -21 -46 -24 -49 -127 -92 -58 -24
-170 -68 -249 -97 l-143 -53 -54 -81 c-62 -93 -90 -122 -132 -134 l-30 -9 -56
117 c-30 64 -58 124 -61 134 -3 11 10 34 39 67 25 28 46 54 46 58 1 4 2 27 3
52 l2 45 -110 76 c-61 42 -119 86 -129 97 -17 19 -17 21 23 55 23 19 51 37 63
40 12 2 50 12 84 21 68 18 79 21 163 36 63 10 108 16 200 26 36 3 66 7 68 9 1
1 87 2 190 1 182 -1 189 -2 255 -30z m-1503 -291 c0 -14 6 -26 13 -26 6 -1 26
-3 42 -5 77 -7 157 -24 169 -37 8 -7 23 -32 35 -54 15 -30 33 -47 68 -64 83
-39 83 -34 -3 -112 l-31 -28 -84 57 c-92 62 -225 134 -250 134 -9 0 -48 -22
-87 -50 -58 -41 -75 -59 -98 -107 -15 -32 -32 -61 -36 -64 -5 -3 -30 -5 -56
-5 -41 1 -47 3 -44 21 7 43 56 126 94 159 23 21 41 46 43 61 3 28 30 54 57 55
10 0 25 8 35 19 18 18 111 71 125 71 5 0 8 -11 8 -25z m2766 -95 c68 -39 214
-142 214 -151 0 -6 -4 -7 -10 -4 -5 3 -10 1 -10 -4 0 -6 29 -41 65 -77 64 -65
64 -65 90 -48 31 20 20 27 174 -126 228 -226 375 -423 531 -710 108 -198 226
-519 266 -720 2 -14 9 -47 14 -74 14 -70 13 -73 -17 -45 -25 23 -35 25 -104
24 -71 -2 -77 -1 -95 23 -11 14 -34 41 -51 60 l-33 35 -2 -49 c-1 -27 -2 -60
-2 -74 -1 -19 18 -44 79 -102 44 -43 85 -77 90 -78 6 0 29 18 50 40 21 22 42
40 45 40 4 0 19 -25 35 -55 20 -39 29 -76 33 -126 l5 -70 -49 -51 c-27 -27
-98 -89 -159 -136 -119 -93 -191 -157 -206 -184 -8 -14 -5 -16 13 -12 13 2 56
7 96 10 l72 6 0 -36 c0 -84 -118 -354 -204 -466 -32 -41 -82 -123 -112 -182
l-53 -106 3 -189 c2 -103 9 -218 15 -256 15 -87 8 -97 -118 -182 -53 -36 -116
-82 -141 -104 l-44 -39 57 -58 57 -59 -77 -70 -76 -70 16 -31 c15 -28 14 -33
-2 -60 -32 -53 -122 -136 -221 -205 -38 -26 -68 -39 -95 -40 -22 -2 -69 -17
-105 -34 -75 -37 -110 -47 -127 -37 -6 4 -14 34 -18 67 -17 170 -32 232 -102
435 l-65 185 1 123 c0 143 5 177 38 251 l24 55 -37 80 c-36 76 -38 85 -39 188
l-1 108 -44 51 c-25 28 -48 57 -52 64 -4 7 4 50 17 96 28 91 28 90 -31 156
-27 31 -33 33 -103 34 -65 2 -77 5 -105 30 l-32 28 -76 -49 -76 -48 -23 24
c-25 27 -58 40 -68 28 -3 -5 -31 -30 -62 -56 l-57 -48 -58 67 c-33 37 -96 109
-141 160 -91 102 -106 127 -163 275 -44 112 -45 102 20 205 17 26 30 50 30 54
0 4 -11 21 -25 37 l-25 30 55 126 c31 69 65 143 77 163 23 39 101 140 157 203
17 19 50 58 73 86 70 83 112 109 213 132 208 48 354 49 430 2 17 -10 73 -62
125 -114 l94 -95 35 35 c20 20 46 40 59 45 32 12 89 11 137 -2 22 -6 41 -11
42 -11 2 1 22 -6 45 -14 24 -8 75 -18 114 -21 88 -6 110 4 187 87 47 50 56 65
46 76 -6 8 -18 14 -25 14 -8 0 -14 3 -14 8 0 12 -52 31 -105 37 -113 13 -110
11 -178 93 -36 42 -74 85 -85 96 -20 18 -21 18 -46 -8 -14 -14 -26 -33 -27
-43 -1 -10 -2 -25 -3 -33 -2 -8 -4 -33 -5 -55 l-2 -40 -48 51 c-37 40 -52 66
-65 115 -23 83 -36 102 -97 143 -76 51 -89 36 -29 -32 28 -31 50 -65 50 -77 0
-39 -43 -109 -72 -116 -38 -10 -42 3 -19 55 l19 45 -34 20 c-19 12 -39 21 -43
21 -5 0 -33 26 -63 58 l-53 58 -80 -19 c-68 -16 -85 -24 -115 -56 -19 -21 -50
-49 -69 -61 -23 -16 -43 -45 -63 -89 -33 -72 -39 -78 -116 -116 l-52 -26 -38
30 c-20 16 -50 32 -67 34 l-30 4 -3 116 -3 116 68 35 c42 21 92 37 128 41 33
4 63 9 67 12 12 7 -32 97 -64 130 -17 17 -28 35 -25 40 4 5 32 15 63 22 48 11
66 22 109 65 28 28 65 77 83 109 l32 57 64 0 64 0 -16 41 -16 42 28 24 c36 31
51 25 51 -20 1 -20 5 -41 10 -46 6 -5 43 -16 84 -25 l74 -16 61 47 c77 60 104
90 121 129 7 18 38 50 68 73 69 50 78 63 40 56 -15 -2 -47 -8 -70 -11 l-43 -6
0 49 c0 26 11 78 24 115 25 70 24 78 -5 78 -21 0 -111 -80 -150 -133 -27 -37
-27 -40 -14 -83 14 -49 5 -107 -29 -172 -16 -31 -18 -32 -44 -18 -15 8 -40 27
-57 42 -16 15 -42 39 -57 52 l-27 25 -61 -42 c-42 -30 -61 -38 -65 -29 -2 7
-13 51 -23 97 -23 99 -30 88 105 176 89 58 93 61 93 97 0 33 6 42 43 69 51 38
90 56 187 85 94 29 111 29 156 4z m-3102 -102 c-6 -45 -17 -72 -43 -98 -39
-40 -155 -122 -262 -185 l-117 -68 16 -46 c21 -64 33 -76 120 -112 110 -45
119 -53 132 -112 20 -85 24 -86 65 -5 36 70 42 77 97 101 57 27 67 41 59 90
-2 10 43 99 86 170 41 68 46 68 142 12 59 -35 59 -36 50 -67 -19 -68 -16 -70
56 -44 l66 24 25 -52 c18 -36 24 -64 22 -94 -3 -43 -2 -44 47 -72 93 -52 109
-108 42 -149 -39 -24 -184 -61 -239 -61 -53 0 -249 -72 -235 -86 3 -3 66 -5
141 -5 102 0 135 -3 129 -12 -32 -56 -88 -130 -106 -141 -12 -8 -53 -19 -92
-26 -82 -15 -116 -32 -139 -70 -26 -45 -61 -73 -143 -115 -77 -40 -78 -41
-108 -111 -42 -99 -54 -115 -155 -200 -103 -88 -115 -112 -125 -244 -4 -46 -9
-88 -11 -92 -5 -8 -31 21 -96 105 -26 34 -43 40 -128 53 -73 11 -75 11 -85
-23 -5 -18 -16 -33 -25 -34 -8 -1 -40 -2 -70 -3 -51 -2 -62 -7 -142 -67 l-86
-64 -7 -60 c-8 -67 -8 -222 0 -235 3 -4 30 -22 60 -39 52 -29 57 -30 83 -17
16 8 54 41 86 74 43 44 63 58 81 57 35 -4 44 -13 40 -38 -2 -12 -6 -47 -9 -77
-4 -30 -9 -74 -12 -97 -6 -51 3 -58 75 -58 l54 0 2 -55 c4 -88 24 -168 51
-200 20 -23 41 -32 101 -46 l75 -17 37 39 c38 40 133 128 164 153 16 12 24 9
75 -25 31 -21 59 -41 62 -45 9 -11 97 -59 101 -55 2 2 39 6 81 10 43 4 84 9
92 12 22 9 40 -18 82 -126 22 -58 48 -108 59 -116 11 -7 51 -19 89 -26 l68
-13 48 -95 49 -95 245 -124 c135 -69 260 -136 276 -150 34 -28 36 -40 26 -119
-9 -67 -29 -110 -90 -199 -54 -79 -50 -58 -45 -273 2 -91 0 -99 -38 -184 l-40
-90 -81 -21 c-91 -24 -101 -31 -144 -93 -30 -44 -30 -44 -14 -85 l16 -41 -57
-143 c-54 -137 -58 -143 -92 -154 -90 -29 -117 -48 -139 -98 -12 -26 -32 -57
-45 -69 l-23 -21 -118 67 c-144 82 -135 77 -223 136 l-73 49 7 41 c3 23 9 51
14 63 12 31 3 78 -27 141 -23 50 -26 69 -24 147 0 50 2 108 4 130 1 22 -2 51
-8 65 -20 49 -98 141 -184 217 -92 82 -97 89 -238 339 l-73 131 25 93 c17 61
23 105 19 127 -5 27 1 45 29 93 35 59 102 225 112 280 8 37 -21 53 -98 56 -47
1 -66 8 -110 37 -47 31 -144 122 -195 183 -12 14 -51 31 -113 48 -96 27 -221
81 -297 129 l-41 26 4 88 c6 165 19 288 49 453 27 149 86 353 150 516 59 151
228 469 312 584 78 108 99 136 116 155 10 11 42 48 70 82 49 59 270 280 313
313 11 8 51 40 89 71 70 56 178 139 182 139 1 0 0 -19 -3 -42z m1986 -114 c0
-10 -15 -22 -100 -77 -25 -16 -28 -15 -63 9 -28 18 -37 32 -37 52 0 35 13 54
31 47 8 -2 37 6 64 19 l50 24 27 -32 c15 -17 28 -36 28 -42z m-1510 19 c43
-17 50 -28 50 -77 l0 -38 -50 4 c-35 3 -64 15 -100 39 l-51 34 37 33 c39 34
44 34 114 5z m1871 -377 c26 -56 59 -112 71 -126 51 -56 51 -55 16 -90 -40
-40 -102 -69 -145 -70 -30 0 -32 2 -27 33 2 17 7 70 10 117 5 73 3 92 -14 130
-31 67 -32 106 -4 112 33 8 44 -5 93 -106z m-157 -75 c9 -10 19 -35 23 -54 5
-33 2 -38 -28 -56 -57 -35 -67 -26 -72 63 -2 34 2 42 23 53 32 17 34 16 54 -6z
m-1543 -248 c21 -16 39 -35 39 -43 0 -16 -49 -94 -55 -88 -2 2 -7 19 -10 38
-3 19 -10 51 -15 70 -17 61 -15 62 41 23z"/>
<path d="M5482 4078 c-17 -17 -15 -43 12 -131 17 -54 38 -97 68 -135 25 -31
52 -77 62 -102 10 -25 24 -58 31 -75 7 -16 31 -77 53 -135 85 -220 79 -210
128 -210 75 0 78 6 32 61 -30 36 -38 52 -30 61 5 7 16 32 23 55 12 43 12 43
-33 100 -24 32 -80 128 -123 213 -86 172 -115 217 -172 273 -30 29 -42 34 -51
25z"/>
</g>
</svg>
